<svg width="26" height="32" viewBox="0 0 26 32" fill="none" xmlns="http://www.w3.org/2000/svg">
<rect width="26" height="32" fill="#1E1E1E"/>
<path d="M-2701 -1839C-2701 -1840.1 -2700.1 -1841 -2699 -1841H2153C2154.1 -1841 2155 -1840.1 2155 -1839V1604C2155 1605.1 2154.1 1606 2153 1606H-2699C-2700.1 1606 -2701 1605.1 -2701 1604V-1839Z" fill="#444444"/>
<path d="M-2699 -1840H2153V-1842H-2699V-1840ZM2154 -1839V1604H2156V-1839H2154ZM2153 1605H-2699V1607H2153V1605ZM-2700 1604V-1839H-2702V1604H-2700ZM-2699 1605C-2699.55 1605 -2700 1604.55 -2700 1604H-2702C-2702 1605.66 -2700.66 1607 -2699 1607V1605ZM2154 1604C2154 1604.55 2153.55 1605 2153 1605V1607C2154.66 1607 2156 1605.66 2156 1604H2154ZM2153 -1840C2153.55 -1840 2154 -1839.55 2154 -1839H2156C2156 -1840.66 2154.66 -1842 2153 -1842V-1840ZM-2699 -1842C-2700.66 -1842 -2702 -1840.66 -2702 -1839H-2700C-2700 -1839.55 -2699.55 -1840 -2699 -1840V-1842Z" fill="white" fill-opacity="0.1"/>
<rect width="393" height="852" transform="translate(-273 -503)" fill="#EBF1FE"/>
<path d="M-23 0.200195C-23 -4.21808 -19.4183 -7.7998 -15 -7.7998H44C48.4183 -7.7998 52 -4.21808 52 0.200195V36.2002C52 40.6185 48.4183 44.2002 44 44.2002H-15C-19.4183 44.2002 -23 40.6185 -23 36.2002V0.200195Z" fill="white"/>
<g clip-path="url(#clip0_3_2)">
<path d="M25.1727 10.7681C24.9875 10.9076 21.7167 12.6963 21.7167 16.6736C21.7167 21.274 25.8786 22.9015 26.0032 22.9418C25.984 23.041 25.342 25.1707 23.8088 27.3407C22.4418 29.2503 21.014 31.1568 18.842 31.1568C16.67 31.1568 16.1111 29.9323 13.6037 29.9323C11.1602 29.9323 10.2914 31.1971 8.30467 31.1971C6.31794 31.1971 4.9317 29.4301 3.33784 27.2601C1.49165 24.7119 0 20.7532 0 16.996C0 10.9696 4.03735 7.7735 8.01081 7.7735C10.1221 7.7735 11.8821 9.1189 13.2076 9.1189C14.4693 9.1189 16.4369 7.6929 18.8388 7.6929C19.7491 7.6929 23.0199 7.7735 25.1727 10.7681ZM17.6985 5.1416C18.6919 3.9977 19.3946 2.4105 19.3946 0.823295C19.3946 0.603195 19.3754 0.379995 19.3339 0.200195C17.7177 0.259095 15.7948 1.2449 14.6354 2.55C13.7251 3.5544 12.8754 5.1416 12.8754 6.7505C12.8754 6.9923 12.917 7.2341 12.9361 7.3116C13.0383 7.3302 13.2044 7.3519 13.3705 7.3519C14.8206 7.3519 16.6445 6.4095 17.6985 5.1416Z" fill="black"/>
</g>
<defs>
<clipPath id="clip0_3_2">
<rect width="26" height="31" fill="white" transform="translate(0 0.200195)"/>
</clipPath>
</defs>
</svg>
