<svg width="25" height="24" viewBox="0 0 25 24" fill="none" xmlns="http://www.w3.org/2000/svg">
<path d="M19.25 3H5.25C4.15 3 3.25 3.9 3.25 5V19C3.25 20.1 4.15 21 5.25 21H19.25C20.35 21 21.25 20.1 21.25 19V5C21.25 3.9 20.35 3 19.25 3ZM13.25 17H8.25C7.7 17 7.25 16.55 7.25 16C7.25 15.45 7.7 15 8.25 15H13.25C13.8 15 14.25 15.45 14.25 16C14.25 16.55 13.8 17 13.25 17ZM16.25 13H8.25C7.7 13 7.25 12.55 7.25 12C7.25 11.45 7.7 11 8.25 11H16.25C16.8 11 17.25 11.45 17.25 12C17.25 12.55 16.8 13 16.25 13ZM16.25 9H8.25C7.7 9 7.25 8.55 7.25 8C7.25 7.45 7.7 7 8.25 7H16.25C16.8 7 17.25 7.45 17.25 8C17.25 8.55 16.8 9 16.25 9Z" fill="#0A0A0B"/>
</svg>
