<svg width="20" height="17" viewBox="0 0 20 17" fill="none" xmlns="http://www.w3.org/2000/svg">
<path d="M18 0.900391H2C0.9 0.900391 0.00999999 1.80039 0.00999999 2.90039L0 14.9004C0 16.0004 0.9 16.9004 2 16.9004H18C19.1 16.9004 20 16.0004 20 14.9004V2.90039C20 1.80039 19.1 0.900391 18 0.900391ZM17 14.9004H3C2.45 14.9004 2 14.4504 2 13.9004V4.90039L8.94 9.24039C9.59 9.65039 10.41 9.65039 11.06 9.24039L18 4.90039V13.9004C18 14.4504 17.55 14.9004 17 14.9004ZM10 7.90039L2 2.90039H18L10 7.90039Z" fill="#939698"/>
</svg>
