<svg width="24" height="24" viewBox="0 0 24 24" fill="none" xmlns="http://www.w3.org/2000/svg">
<g clip-path="url(#clip0_215_6986)">
<path d="M19 -0.0078125H5C4.45 -0.0078125 4 0.442187 4 0.992188C4 1.54219 4.45 1.99219 5 1.99219H19C19.55 1.99219 20 1.54219 20 0.992188C20 0.442187 19.55 -0.0078125 19 -0.0078125ZM5 23.9922H19C19.55 23.9922 20 23.5422 20 22.9922C20 22.4422 19.55 21.9922 19 21.9922H5C4.45 21.9922 4 22.4422 4 22.9922C4 23.5422 4.45 23.9922 5 23.9922ZM20 3.99219H4C2.9 3.99219 2 4.89219 2 5.99219V17.9922C2 19.0922 2.9 19.9922 4 19.9922H20C21.1 19.9922 22 19.0922 22 17.9922V5.99219C22 4.89219 21.1 3.99219 20 3.99219ZM12 6.74219C13.24 6.74219 14.25 7.75219 14.25 8.99219C14.25 10.2322 13.24 11.2422 12 11.2422C10.76 11.2422 9.75 10.2322 9.75 8.99219C9.75 7.75219 10.76 6.74219 12 6.74219ZM17 16.9922H7V15.4922C7 13.8222 10.33 12.9922 12 12.9922C13.67 12.9922 17 13.8222 17 15.4922V16.9922Z" fill="#939698"/>
</g>
<defs>
<clipPath id="clip0_215_6986">
<rect width="24" height="24" fill="white" transform="translate(0 -0.0078125)"/>
</clipPath>
</defs>
</svg>
