<svg width="54" height="45" viewBox="0 0 54 45" fill="none" xmlns="http://www.w3.org/2000/svg">
<path d="M31.3463 14.0715H44.4178L42.5006 31.3258L41.1063 23.8315L40.3656 27.5786L39.6249 31.3258H31.3463V44.3973H14.092V31.3258H1.02051V14.0715H14.092V1H31.3463V14.0715Z" fill="#364C84"/>
<path d="M44.4178 14.0715H31.3463V1H14.092V14.0715H1.02051V31.3258H14.092V44.3973H31.3463V31.3258H39.6249L40.3656 27.5786L41.1063 23.8315L42.5006 31.3258L44.4178 14.0715ZM44.4178 14.0715V39.4301L46.9449 27.3172L47.7292 34.2015L49.5592 28.7986H53.2192" stroke="#364C84" stroke-width="1.08493" stroke-linecap="round" stroke-linejoin="round"/>
<path d="M13.9645 26.4462C13.5884 26.4462 13.2441 26.3999 12.9317 26.3073C12.625 26.2147 12.3501 26.0787 12.1071 25.8994C11.8699 25.72 11.6558 25.503 11.4648 25.2484L12.2807 24.3197C12.5642 24.7132 12.8449 24.9822 13.1226 25.1269C13.4061 25.2658 13.7128 25.3352 14.0426 25.3352C14.222 25.3352 14.3811 25.3121 14.52 25.2658C14.6647 25.2137 14.7775 25.1414 14.8585 25.0488C14.9395 24.9562 14.98 24.8463 14.98 24.719C14.98 24.6264 14.9598 24.5425 14.9192 24.4673C14.8787 24.3862 14.8209 24.3168 14.7457 24.2589C14.6704 24.1953 14.5807 24.1403 14.4766 24.094C14.3724 24.042 14.2567 23.9986 14.1294 23.9638C14.0021 23.9233 13.8632 23.8915 13.7128 23.8684C13.3888 23.7932 13.1052 23.7035 12.8622 23.5993C12.6192 23.4894 12.4167 23.3563 12.2547 23.2001C12.0926 23.038 11.9711 22.8558 11.8901 22.6532C11.8149 22.4507 11.7773 22.2222 11.7773 21.9676C11.7773 21.7072 11.8351 21.4671 11.9509 21.2472C12.0666 21.0215 12.2257 20.8277 12.4282 20.6657C12.6366 20.5036 12.8738 20.3792 13.14 20.2924C13.4119 20.2056 13.6983 20.1622 13.9992 20.1622C14.3695 20.1622 14.6936 20.2056 14.9713 20.2924C15.2491 20.3734 15.4892 20.4921 15.6917 20.6483C15.9 20.8045 16.0736 20.9955 16.2125 21.2211L15.3879 22.0196C15.2664 21.8576 15.1333 21.7217 14.9887 21.6117C14.8498 21.5018 14.6965 21.4208 14.5287 21.3687C14.3667 21.3108 14.1989 21.2819 14.0253 21.2819C13.8343 21.2819 13.6694 21.3079 13.5305 21.36C13.3917 21.4063 13.2817 21.4757 13.2007 21.5683C13.1255 21.6609 13.0879 21.7737 13.0879 21.9068C13.0879 22.011 13.1139 22.1036 13.166 22.1846C13.2181 22.2656 13.2933 22.3379 13.3917 22.4015C13.49 22.4594 13.6087 22.5115 13.7475 22.5578C13.8864 22.6041 14.0397 22.6446 14.2075 22.6793C14.5258 22.7429 14.8122 22.8268 15.0668 22.931C15.3214 23.0351 15.5384 23.1624 15.7178 23.3129C15.9029 23.4575 16.0447 23.6311 16.143 23.8337C16.2414 24.0304 16.2906 24.2532 16.2906 24.502C16.2906 24.9128 16.1922 25.2629 15.9955 25.5522C15.7988 25.8415 15.5268 26.0643 15.1796 26.2205C14.8325 26.3709 14.4274 26.4462 13.9645 26.4462Z" fill="#FFFDF5"/>
<path d="M22.7588 26.4462C22.3132 26.4462 21.9024 26.3681 21.5263 26.2118C21.1502 26.0556 20.8204 25.8386 20.5368 25.5609C20.2591 25.2773 20.045 24.9446 19.8946 24.5627C19.7441 24.175 19.6689 23.7555 19.6689 23.3042C19.6689 22.8471 19.7441 22.4305 19.8946 22.0544C20.045 21.6725 20.2591 21.3398 20.5368 21.0562C20.8204 20.7727 21.1502 20.5528 21.5263 20.3966C21.9024 20.2404 22.3132 20.1622 22.7588 20.1622C23.2101 20.1622 23.6209 20.2404 23.9913 20.3966C24.3674 20.5528 24.6943 20.7727 24.972 21.0562C25.2556 21.3398 25.4726 21.6725 25.623 22.0544C25.7734 22.4363 25.8487 22.8529 25.8487 23.3042C25.8487 23.7555 25.7734 24.1722 25.623 24.554C25.4726 24.9359 25.2556 25.2687 24.972 25.5522C24.6943 25.8357 24.3674 26.0556 23.9913 26.2118C23.6209 26.3681 23.2101 26.4462 22.7588 26.4462ZM22.7588 25.2137C23.0134 25.2137 23.2477 25.1674 23.4618 25.0748C23.6817 24.9822 23.8697 24.8492 24.026 24.6756C24.1822 24.502 24.3037 24.2995 24.3905 24.068C24.4831 23.8365 24.5294 23.582 24.5294 23.3042C24.5294 23.0265 24.4831 22.7719 24.3905 22.5404C24.3037 22.309 24.1822 22.1093 24.026 21.9415C23.8697 21.7679 23.6817 21.6349 23.4618 21.5423C23.2477 21.4439 23.0134 21.3947 22.7588 21.3947C22.5042 21.3947 22.2698 21.4439 22.0557 21.5423C21.8416 21.6349 21.6536 21.7679 21.4916 21.9415C21.3296 22.1093 21.2052 22.309 21.1184 22.5404C21.0374 22.7719 20.9968 23.0265 20.9968 23.3042C20.9968 23.582 21.0374 23.8365 21.1184 24.068C21.2052 24.2995 21.3296 24.502 21.4916 24.6756C21.6536 24.8492 21.8416 24.9822 22.0557 25.0748C22.2698 25.1674 22.5042 25.2137 22.7588 25.2137Z" fill="#FFFDF5"/>
<path d="M31.5944 26.4462C31.2183 26.4462 30.874 26.3999 30.5615 26.3073C30.2549 26.2147 29.98 26.0787 29.737 25.8994C29.4997 25.72 29.2857 25.503 29.0947 25.2484L29.9106 24.3197C30.1941 24.7132 30.4747 24.9822 30.7525 25.1269C31.036 25.2658 31.3427 25.3352 31.6725 25.3352C31.8519 25.3352 32.011 25.3121 32.1499 25.2658C32.2945 25.2137 32.4074 25.1414 32.4884 25.0488C32.5694 24.9562 32.6099 24.8463 32.6099 24.719C32.6099 24.6264 32.5896 24.5425 32.5491 24.4673C32.5086 24.3862 32.4508 24.3168 32.3755 24.2589C32.3003 24.1953 32.2106 24.1403 32.1065 24.094C32.0023 24.042 31.8866 23.9986 31.7593 23.9638C31.632 23.9233 31.4931 23.8915 31.3427 23.8684C31.0187 23.7932 30.7351 23.7035 30.4921 23.5993C30.2491 23.4894 30.0466 23.3563 29.8845 23.2001C29.7225 23.038 29.601 22.8558 29.52 22.6532C29.4448 22.4507 29.4072 22.2222 29.4072 21.9676C29.4072 21.7072 29.465 21.4671 29.5808 21.2472C29.6965 21.0215 29.8556 20.8277 30.0581 20.6657C30.2664 20.5036 30.5037 20.3792 30.7698 20.2924C31.0418 20.2056 31.3282 20.1622 31.6291 20.1622C31.9994 20.1622 32.3235 20.2056 32.6012 20.2924C32.8789 20.3734 33.1191 20.4921 33.3216 20.6483C33.5299 20.8045 33.7035 20.9955 33.8424 21.2211L33.0178 22.0196C32.8963 21.8576 32.7632 21.7217 32.6186 21.6117C32.4797 21.5018 32.3264 21.4208 32.1586 21.3687C31.9965 21.3108 31.8287 21.2819 31.6551 21.2819C31.4642 21.2819 31.2993 21.3079 31.1604 21.36C31.0215 21.4063 30.9116 21.4757 30.8306 21.5683C30.7554 21.6609 30.7178 21.7737 30.7178 21.9068C30.7178 22.011 30.7438 22.1036 30.7959 22.1846C30.848 22.2656 30.9232 22.3379 31.0215 22.4015C31.1199 22.4594 31.2385 22.5115 31.3774 22.5578C31.5163 22.6041 31.6696 22.6446 31.8374 22.6793C32.1557 22.7429 32.4421 22.8268 32.6967 22.931C32.9513 23.0351 33.1683 23.1624 33.3476 23.3129C33.5328 23.4575 33.6746 23.6311 33.7729 23.8337C33.8713 24.0304 33.9205 24.2532 33.9205 24.502C33.9205 24.9128 33.8221 25.2629 33.6254 25.5522C33.4286 25.8415 33.1567 26.0643 32.8095 26.2205C32.4623 26.3709 32.0573 26.4462 31.5944 26.4462Z" fill="#FFFDF5"/>
</svg>
