<svg width="24" height="24" viewBox="0 0 24 24" fill="none" xmlns="http://www.w3.org/2000/svg">
<path fill-rule="evenodd" clip-rule="evenodd" d="M12 2L3 9V20C3 20.5304 3.21071 21.0391 3.58579 21.4142C3.96086 21.7893 4.46957 22 5 22H8.5714V12H15.4285V22H19C19.5304 22 20.0391 21.7893 20.4142 21.4142C20.7893 21.0391 21 20.5304 21 20V9L12 2Z" fill="#9DA4A8"/>
<path d="M3 9L2.29601 8.09487C2.0167 8.31212 1.85333 8.64615 1.85333 9H3ZM12 2L12.704 1.09488C12.2899 0.772819 11.7101 0.772819 11.296 1.09488L12 2ZM8.5714 22V23.1467C9.20469 23.1467 9.71807 22.6333 9.71807 22H8.5714ZM8.5714 12V10.8534C7.93812 10.8534 7.42474 11.3667 7.42474 12H8.5714ZM15.4285 12H16.5752C16.5752 11.3667 16.0618 10.8534 15.4285 10.8534V12ZM15.4285 22H14.2819C14.2819 22.6333 14.7953 23.1467 15.4285 23.1467V22ZM21 9H22.1467C22.1467 8.64615 21.9833 8.31212 21.704 8.09487L21 9ZM3.70399 9.90512L12.704 2.90512L11.296 1.09488L2.29601 8.09487L3.70399 9.90512ZM4.14667 20V9H1.85333V20H4.14667ZM4.3966 20.6034C4.23657 20.4434 4.14667 20.2263 4.14667 20H1.85333C1.85333 20.8345 2.18486 21.6349 2.77497 22.225L4.3966 20.6034ZM5 20.8533C4.77368 20.8533 4.55663 20.7634 4.3966 20.6034L2.77497 22.225C3.36508 22.8151 4.16545 23.1467 5 23.1467V20.8533ZM8.5714 20.8533H5V23.1467H8.5714V20.8533ZM9.71807 22V12H7.42474V22H9.71807ZM8.5714 13.1467H15.4285V10.8534H8.5714V13.1467ZM14.2819 12V22H16.5752V12H14.2819ZM19 20.8533H15.4285V23.1467H19V20.8533ZM19.6034 20.6034C19.4434 20.7634 19.2263 20.8533 19 20.8533V23.1467C19.8346 23.1467 20.6349 22.8151 21.225 22.225L19.6034 20.6034ZM19.8533 20C19.8533 20.2263 19.7634 20.4434 19.6034 20.6034L21.225 22.225C21.8151 21.6349 22.1467 20.8345 22.1467 20H19.8533ZM19.8533 9V20H22.1467V9H19.8533ZM11.296 2.90512L20.296 9.90512L21.704 8.09487L12.704 1.09488L11.296 2.90512Z" fill="#9DA4A8"/>
</svg>
