<svg width="28" height="28" viewBox="0 0 28 28" fill="none" xmlns="http://www.w3.org/2000/svg">
<g id="notifications_active" clip-path="url(#clip0_451_3387)">
<path id="Vector" d="M20.9996 18.667V12.8337C20.9996 9.25199 19.0863 6.25366 15.7496 5.46033V4.66699C15.7496 3.69866 14.9563 2.91699 13.988 2.91699C13.0196 2.91699 12.2496 3.69866 12.2496 4.66699V5.46033C8.90131 6.25366 6.99965 9.24033 6.99965 12.8337V18.667L5.48298 20.172C4.74798 20.907 5.26131 22.167 6.29965 22.167H21.6646C22.703 22.167 23.228 20.907 22.493 20.172L20.9996 18.667ZM13.988 25.667C15.2713 25.667 16.3213 24.617 16.3213 23.3337H11.6546C11.6546 24.617 12.693 25.667 13.988 25.667ZM7.89798 5.51866C8.38798 5.07533 8.39965 4.31699 7.93298 3.85033C7.48965 3.40699 6.76631 3.39533 6.31131 3.82699C4.31631 5.64699 2.93965 8.12033 2.49631 10.897C2.39131 11.6087 2.93965 12.2503 3.66298 12.2503C4.22298 12.2503 4.71298 11.842 4.80631 11.282C5.15631 9.01866 6.27631 7.00033 7.89798 5.51866ZM21.6996 3.82699C21.233 3.39533 20.5096 3.40699 20.0663 3.85033C19.5996 4.31699 19.623 5.06366 20.1013 5.50699C21.7113 6.98866 22.843 9.00699 23.193 11.2703C23.2746 11.8303 23.7646 12.2387 24.3363 12.2387C25.048 12.2387 25.608 11.597 25.4913 10.8853C25.048 8.12033 23.683 5.65866 21.6996 3.82699Z" fill="#FFFDF5"/>
</g>
<defs>
<clipPath id="clip0_451_3387">
<rect width="28" height="28" fill="white"/>
</clipPath>
</defs>
</svg>
