<svg width="16" height="22" viewBox="0 0 16 22" fill="none" xmlns="http://www.w3.org/2000/svg">
<path d="M14 7.90039H13V5.90039C13 3.14039 10.76 0.900391 8 0.900391C5.24 0.900391 3 3.14039 3 5.90039V7.90039H2C0.9 7.90039 0 8.80039 0 9.90039V19.9004C0 21.0004 0.9 21.9004 2 21.9004H14C15.1 21.9004 16 21.0004 16 19.9004V9.90039C16 8.80039 15.1 7.90039 14 7.90039ZM5 5.90039C5 4.24039 6.34 2.90039 8 2.90039C9.66 2.90039 11 4.24039 11 5.90039V7.90039H5V5.90039ZM13 19.9004H3C2.45 19.9004 2 19.4504 2 18.9004V10.9004C2 10.3504 2.45 9.90039 3 9.90039H13C13.55 9.90039 14 10.3504 14 10.9004V18.9004C14 19.4504 13.55 19.9004 13 19.9004ZM8 16.9004C9.1 16.9004 10 16.0004 10 14.9004C10 13.8004 9.1 12.9004 8 12.9004C6.9 12.9004 6 13.8004 6 14.9004C6 16.0004 6.9 16.9004 8 16.9004Z" fill="#939698"/>
</svg>
