<svg width="18" height="18" viewBox="0 0 18 18" fill="none" xmlns="http://www.w3.org/2000/svg">
<path d="M16.23 12.252L13.69 11.962C13.08 11.892 12.48 12.102 12.05 12.532L10.21 14.372C7.38004 12.932 5.06004 10.622 3.62004 7.78195L5.47004 5.93195C5.90004 5.50195 6.11004 4.90195 6.04004 4.29195L5.75004 1.77195C5.63004 0.761953 4.78004 0.00195312 3.76004 0.00195312H2.03004C0.900041 0.00195312 -0.0399593 0.941953 0.0300407 2.07195C0.560041 10.612 7.39004 17.432 15.92 17.962C17.05 18.032 17.99 17.092 17.99 15.962V14.232C18 13.222 17.24 12.372 16.23 12.252Z" fill="#939698"/>
</svg>
