<svg width="8" height="4" viewBox="0 0 8 4" fill="none" xmlns="http://www.w3.org/2000/svg">
<path d="M1.26734 3.04883C1.06682 3.04883 0.870208 3.02604 0.6775 2.98047C0.486094 2.93359 0.317474 2.86849 0.17164 2.78516L0.351328 2.40234C0.460703 2.46354 0.594166 2.51823 0.751719 2.56641C0.910573 2.61458 1.07854 2.63867 1.25562 2.63867C1.38583 2.63867 1.48479 2.62109 1.5525 2.58594C1.62021 2.54948 1.66643 2.49674 1.69117 2.42773C1.71591 2.35872 1.72828 2.27604 1.72828 2.17969C1.72828 2.1263 1.71917 2.07747 1.70094 2.0332C1.68271 1.98893 1.64625 1.94857 1.59156 1.91211C1.53818 1.87435 1.4568 1.83919 1.34742 1.80664L0.792734 1.63477C0.644297 1.58919 0.52776 1.5306 0.443125 1.45898C0.358489 1.38607 0.298594 1.30013 0.263437 1.20117C0.228281 1.10221 0.210703 0.990885 0.210703 0.867188C0.210703 0.686198 0.253672 0.539062 0.339609 0.425781C0.425547 0.311198 0.542734 0.226562 0.691172 0.171875C0.840911 0.117188 1.00823 0.0898438 1.19312 0.0898438C1.40016 0.0898438 1.5818 0.108073 1.73805 0.144531C1.8956 0.18099 2.03362 0.234375 2.15211 0.304688L2.01148 0.679688C1.91253 0.630208 1.79924 0.587891 1.67164 0.552734C1.54534 0.516276 1.40471 0.498047 1.24977 0.498047C1.0844 0.498047 0.954192 0.522135 0.85914 0.570312C0.764088 0.61849 0.716562 0.712891 0.716562 0.853516C0.716562 0.948568 0.74 1.02279 0.786875 1.07617C0.83375 1.12956 0.925547 1.17839 1.06227 1.22266L1.62672 1.40039C1.82073 1.46029 1.96461 1.55078 2.05836 1.67188C2.15341 1.79297 2.20094 1.96419 2.20094 2.18555C2.20094 2.35221 2.16904 2.50065 2.10523 2.63086C2.04143 2.75977 1.94052 2.86198 1.8025 2.9375C1.66578 3.01172 1.4874 3.04883 1.26734 3.04883ZM4.01953 3.04883C3.76823 3.04883 3.56185 3.02279 3.40039 2.9707C3.23893 2.91862 3.11328 2.84701 3.02344 2.75586C2.93359 2.66341 2.87044 2.55534 2.83398 2.43164C2.79883 2.30794 2.78125 2.17448 2.78125 2.03125V1.13281C2.78125 0.985677 2.79883 0.848958 2.83398 0.722656C2.86914 0.596354 2.93164 0.485677 3.02148 0.390625C3.11133 0.295573 3.23698 0.222005 3.39844 0.169922C3.5599 0.116536 3.76693 0.0898438 4.01953 0.0898438C4.26172 0.0898438 4.46094 0.117839 4.61719 0.173828C4.77344 0.229818 4.89518 0.307292 4.98242 0.40625C5.07096 0.503906 5.13216 0.617839 5.16602 0.748047C5.20117 0.876953 5.21875 1.01497 5.21875 1.16211V2.00195C5.21875 2.14388 5.20117 2.27799 5.16602 2.4043C5.13086 2.5306 5.06901 2.64193 4.98047 2.73828C4.89323 2.83464 4.77148 2.91081 4.61523 2.9668C4.46029 3.02148 4.26172 3.04883 4.01953 3.04883ZM4.01953 2.63867C4.17318 2.63867 4.30013 2.6237 4.40039 2.59375C4.50065 2.5625 4.57552 2.50716 4.625 2.42773C4.67578 2.34831 4.70117 2.23698 4.70117 2.09375V1.05664C4.70117 0.914714 4.67578 0.803385 4.625 0.722656C4.57552 0.641927 4.5 0.584635 4.39844 0.550781C4.29818 0.515625 4.17187 0.498047 4.01953 0.498047C3.86979 0.498047 3.74089 0.514974 3.63281 0.548828C3.52474 0.58138 3.44206 0.638672 3.38477 0.720703C3.32878 0.801432 3.30078 0.913411 3.30078 1.05664V2.09375C3.30078 2.23698 3.32878 2.34831 3.38477 2.42773C3.44075 2.50716 3.52279 2.5625 3.63086 2.59375C3.73893 2.6237 3.86849 2.63867 4.01953 2.63867ZM6.90453 3.04883C6.70401 3.04883 6.5074 3.02604 6.31469 2.98047C6.12328 2.93359 5.95466 2.86849 5.80883 2.78516L5.98852 2.40234C6.09789 2.46354 6.23135 2.51823 6.38891 2.56641C6.54776 2.61458 6.71573 2.63867 6.89281 2.63867C7.02302 2.63867 7.12198 2.62109 7.18969 2.58594C7.2574 2.54948 7.30362 2.49674 7.32836 2.42773C7.3531 2.35872 7.36547 2.27604 7.36547 2.17969C7.36547 2.1263 7.35635 2.07747 7.33812 2.0332C7.3199 1.98893 7.28344 1.94857 7.22875 1.91211C7.17536 1.87435 7.09398 1.83919 6.98461 1.80664L6.42992 1.63477C6.28148 1.58919 6.16495 1.5306 6.08031 1.45898C5.99568 1.38607 5.93578 1.30013 5.90062 1.20117C5.86547 1.10221 5.84789 0.990885 5.84789 0.867188C5.84789 0.686198 5.89086 0.539062 5.9768 0.425781C6.06273 0.311198 6.17992 0.226562 6.32836 0.171875C6.4781 0.117188 6.64542 0.0898438 6.83031 0.0898438C7.03734 0.0898438 7.21898 0.108073 7.37523 0.144531C7.53279 0.18099 7.67081 0.234375 7.7893 0.304688L7.64867 0.679688C7.54971 0.630208 7.43643 0.587891 7.30883 0.552734C7.18253 0.516276 7.0419 0.498047 6.88695 0.498047C6.72159 0.498047 6.59138 0.522135 6.49633 0.570312C6.40128 0.61849 6.35375 0.712891 6.35375 0.853516C6.35375 0.948568 6.37719 1.02279 6.42406 1.07617C6.47094 1.12956 6.56273 1.17839 6.69945 1.22266L7.26391 1.40039C7.45792 1.46029 7.6018 1.55078 7.69555 1.67188C7.7906 1.79297 7.83812 1.96419 7.83812 2.18555C7.83812 2.35221 7.80622 2.50065 7.74242 2.63086C7.67862 2.75977 7.57771 2.86198 7.43969 2.9375C7.30297 3.01172 7.12458 3.04883 6.90453 3.04883Z" fill="#364C84"/>
</svg>
