<svg width="197" height="164" viewBox="0 0 197 164" fill="none" xmlns="http://www.w3.org/2000/svg">
<path d="M113.807 50.1928H162L154.932 113.807L149.791 86.1767L147.06 99.992L144.329 113.807H113.807V162H50.1928V113.807H2V50.1928H50.1928V2H113.807V50.1928Z" fill="#FFFDF5"/>
<path d="M162 50.1928H113.807V2H50.1928V50.1928H2V113.807H50.1928V162H113.807V113.807H144.329L147.06 99.992L149.791 86.1767L154.932 113.807L162 50.1928ZM162 50.1928V143.687L171.317 99.0281L174.209 124.41L180.956 104.49H194.45" stroke="#FFFDF5" stroke-width="4" stroke-linecap="round" stroke-linejoin="round"/>
<path d="M49.5823 94.3195C48.1956 94.3195 46.9263 94.1488 45.7743 93.8075C44.6436 93.4662 43.6303 92.9648 42.7343 92.3035C41.8596 91.6422 41.0703 90.8422 40.3663 89.9035L43.3743 86.4795C44.4196 87.9302 45.4543 88.9222 46.4783 89.4555C47.5236 89.9675 48.6543 90.2235 49.8703 90.2235C50.5316 90.2235 51.1183 90.1382 51.6303 89.9675C52.1636 89.7755 52.5796 89.5088 52.8783 89.1675C53.1769 88.8262 53.3263 88.4208 53.3263 87.9515C53.3263 87.6102 53.2516 87.3008 53.1023 87.0235C52.9529 86.7248 52.7396 86.4688 52.4623 86.2555C52.1849 86.0208 51.8543 85.8182 51.4703 85.6475C51.0863 85.4555 50.6596 85.2955 50.1903 85.1675C49.7209 85.0182 49.2089 84.9008 48.6543 84.8155C47.4596 84.5382 46.4143 84.2075 45.5183 83.8235C44.6223 83.4182 43.8756 82.9275 43.2783 82.3515C42.6809 81.7542 42.2329 81.0822 41.9343 80.3355C41.6569 79.5888 41.5183 78.7462 41.5183 77.8075C41.5183 76.8475 41.7316 75.9622 42.1583 75.1515C42.5849 74.3195 43.1716 73.6048 43.9183 73.0075C44.6863 72.4102 45.5609 71.9515 46.5423 71.6315C47.5449 71.3115 48.6009 71.1515 49.7103 71.1515C51.0756 71.1515 52.2703 71.3115 53.2943 71.6315C54.3183 71.9302 55.2036 72.3675 55.9503 72.9435C56.7183 73.5195 57.3583 74.2235 57.8703 75.0555L54.8303 77.9995C54.3823 77.4022 53.8916 76.9008 53.3583 76.4955C52.8463 76.0902 52.2809 75.7915 51.6623 75.5995C51.0649 75.3862 50.4463 75.2795 49.8063 75.2795C49.1023 75.2795 48.4943 75.3755 47.9823 75.5675C47.4703 75.7382 47.0649 75.9942 46.7663 76.3355C46.4889 76.6768 46.3503 77.0928 46.3503 77.5835C46.3503 77.9675 46.4463 78.3088 46.6383 78.6075C46.8303 78.9062 47.1076 79.1728 47.4703 79.4075C47.8329 79.6208 48.2703 79.8128 48.7823 79.9835C49.2943 80.1542 49.8596 80.3035 50.4783 80.4315C51.6516 80.6662 52.7076 80.9755 53.6463 81.3595C54.5849 81.7435 55.3849 82.2128 56.0463 82.7675C56.7289 83.3008 57.2516 83.9408 57.6143 84.6875C57.9769 85.4128 58.1583 86.2342 58.1583 87.1515C58.1583 88.6662 57.7956 89.9568 57.0703 91.0235C56.3449 92.0902 55.3423 92.9115 54.0623 93.4875C52.7823 94.0422 51.2889 94.3195 49.5823 94.3195Z" fill="#364C84"/>
<path d="M82.0039 94.3195C80.3612 94.3195 78.8465 94.0315 77.4599 93.4555C76.0732 92.8795 74.8572 92.0795 73.8119 91.0555C72.7879 90.0102 71.9985 88.7835 71.4439 87.3755C70.8892 85.9462 70.6119 84.3995 70.6119 82.7355C70.6119 81.0502 70.8892 79.5142 71.4439 78.1275C71.9985 76.7195 72.7879 75.4928 73.8119 74.4475C74.8572 73.4022 76.0732 72.5915 77.4599 72.0155C78.8465 71.4395 80.3612 71.1515 82.0039 71.1515C83.6679 71.1515 85.1825 71.4395 86.5479 72.0155C87.9345 72.5915 89.1399 73.4022 90.1639 74.4475C91.2092 75.4928 92.0092 76.7195 92.5639 78.1275C93.1185 79.5355 93.3959 81.0715 93.3959 82.7355C93.3959 84.3995 93.1185 85.9355 92.5639 87.3435C92.0092 88.7515 91.2092 89.9782 90.1639 91.0235C89.1399 92.0688 87.9345 92.8795 86.5479 93.4555C85.1825 94.0315 83.6679 94.3195 82.0039 94.3195ZM82.0039 89.7755C82.9425 89.7755 83.8065 89.6048 84.5959 89.2635C85.4065 88.9222 86.0999 88.4315 86.6759 87.7915C87.2519 87.1515 87.6999 86.4048 88.0199 85.5515C88.3612 84.6982 88.5319 83.7595 88.5319 82.7355C88.5319 81.7115 88.3612 80.7728 88.0199 79.9195C87.6999 79.0662 87.2519 78.3302 86.6759 77.7115C86.0999 77.0715 85.4065 76.5808 84.5959 76.2395C83.8065 75.8768 82.9425 75.6955 82.0039 75.6955C81.0652 75.6955 80.2012 75.8768 79.4119 76.2395C78.6225 76.5808 77.9292 77.0715 77.3319 77.7115C76.7345 78.3302 76.2759 79.0662 75.9559 79.9195C75.6572 80.7728 75.5079 81.7115 75.5079 82.7355C75.5079 83.7595 75.6572 84.6982 75.9559 85.5515C76.2759 86.4048 76.7345 87.1515 77.3319 87.7915C77.9292 88.4315 78.6225 88.9222 79.4119 89.2635C80.2012 89.6048 81.0652 89.7755 82.0039 89.7755Z" fill="#364C84"/>
<path d="M114.582 94.3195C113.196 94.3195 111.926 94.1488 110.774 93.8075C109.644 93.4662 108.63 92.9648 107.734 92.3035C106.86 91.6422 106.07 90.8422 105.366 89.9035L108.374 86.4795C109.42 87.9302 110.454 88.9222 111.478 89.4555C112.524 89.9675 113.654 90.2235 114.87 90.2235C115.532 90.2235 116.118 90.1382 116.63 89.9675C117.164 89.7755 117.58 89.5088 117.878 89.1675C118.177 88.8262 118.326 88.4208 118.326 87.9515C118.326 87.6102 118.252 87.3008 118.102 87.0235C117.953 86.7248 117.74 86.4688 117.462 86.2555C117.185 86.0208 116.854 85.8182 116.47 85.6475C116.086 85.4555 115.66 85.2955 115.19 85.1675C114.721 85.0182 114.209 84.9008 113.654 84.8155C112.46 84.5382 111.414 84.2075 110.518 83.8235C109.622 83.4182 108.876 82.9275 108.278 82.3515C107.681 81.7542 107.233 81.0822 106.934 80.3355C106.657 79.5888 106.518 78.7462 106.518 77.8075C106.518 76.8475 106.732 75.9622 107.158 75.1515C107.585 74.3195 108.172 73.6048 108.918 73.0075C109.686 72.4102 110.561 71.9515 111.542 71.6315C112.545 71.3115 113.601 71.1515 114.71 71.1515C116.076 71.1515 117.27 71.3115 118.294 71.6315C119.318 71.9302 120.204 72.3675 120.95 72.9435C121.718 73.5195 122.358 74.2235 122.87 75.0555L119.83 77.9995C119.382 77.4022 118.892 76.9008 118.358 76.4955C117.846 76.0902 117.281 75.7915 116.662 75.5995C116.065 75.3862 115.446 75.2795 114.806 75.2795C114.102 75.2795 113.494 75.3755 112.982 75.5675C112.47 75.7382 112.065 75.9942 111.766 76.3355C111.489 76.6768 111.35 77.0928 111.35 77.5835C111.35 77.9675 111.446 78.3088 111.638 78.6075C111.83 78.9062 112.108 79.1728 112.47 79.4075C112.833 79.6208 113.27 79.8128 113.782 79.9835C114.294 80.1542 114.86 80.3035 115.478 80.4315C116.652 80.6662 117.708 80.9755 118.646 81.3595C119.585 81.7435 120.385 82.2128 121.046 82.7675C121.729 83.3008 122.252 83.9408 122.614 84.6875C122.977 85.4128 123.158 86.2342 123.158 87.1515C123.158 88.6662 122.796 89.9568 122.07 91.0235C121.345 92.0902 120.342 92.9115 119.062 93.4875C117.782 94.0422 116.289 94.3195 114.582 94.3195Z" fill="#364C84"/>
</svg>
